<svg xmlns="http://www.w3.org/2000/svg" width="318.8" height="100" viewBox="0 0 318.8 100"><g transform="translate(-10 -10)"><g transform="translate(3.75 -58.056)"><path d="M55.972,68.056c25.278,0,49.722,20.556,49.722,50s-24.444,50-49.722,50c-25.417,0-49.722-20.556-49.722-50S30.556,68.056,55.972,68.056Zm0,89.028c19.028,0,37.778-16.111,37.778-39.028S75,79.028,55.972,79.028c-19.167,0-37.778,16.111-37.778,39.028s18.611,39.028,37.778,39.028Z" fill="#2647ea"/></g><g transform="translate(126.878 19.899)"><path d="M19,23.1a16.972,16.972,0,0,1,0,33.944A16.972,16.972,0,0,1,19,23.1Zm0,30.22a13.255,13.255,0,0,0,0-26.5,13.255,13.255,0,0,0,0,26.5ZM60.864,23.572h3.913V44.6c0,8.109-5.28,12.682-11.975,12.682S40.827,52.708,40.827,44.6V23.572H44.74V44.6c0,6.176,3.677,8.958,8.062,8.958s8.062-2.782,8.062-8.958V23.572Zm30.88,0V27.25H82.6V56.574H78.685V27.25H69.491V23.572Zm31.4,33-3.394-7.779H102.116l-3.394,7.779H94.572l14.709-33h3.253l14.756,33h-4.149ZM103.577,45.495h14.709l-7.355-16.784Zm61.854-21.922v33h-4.007V32.341l-11.6,24.232H146.62L135.07,32.388V56.574h-4.007v-33h3.866L148.27,51.2l13.295-27.627h3.866Zm32.341,33-3.394-7.779H176.746l-3.394,7.779H169.2l14.709-33h3.253l14.756,33h-4.149ZM178.207,45.495h14.709l-7.355-16.784Z" fill="#2647ea"/></g></g></svg>